<svg viewBox="0 0 654 506" fill="none" xmlns="http://www.w3.org/2000/svg">
<g filter="url(#filter0_d_0:1)">
<path fill-rule="evenodd" clip-rule="evenodd" d="M372.418 90.0291C412.241 77.0987 419.221 10.2785 460.2 1.68351C489.124 -4.3833 562.819 30.9403 520 67.8215C518.01 118.55 662.271 136.719 648 185.44C644.107 198.732 479.522 184.924 489.5 194.53C473.5 243.94 531.899 251.53 545.736 277.588C560.872 306.095 563.953 339.803 562.819 372.059C561.327 414.458 579.014 506.874 538.061 495.798C464.945 476.023 464.678 341.215 390.588 325.477C344.623 315.714 377.516 455.084 330.645 451.741C286.219 448.571 355.75 339.293 315.547 320.124C269.444 298.142 220.086 401.198 174.861 377.463C140.21 359.276 248.407 299.989 222.056 271.057C170.647 214.612 42.6221 262.7 8.24714 194.53C-15.4977 147.44 97.2495 140.469 142.839 113.959C170.516 97.8647 196.236 79.243 226.145 67.8215C251.155 58.2708 277.784 48.3 304.252 52.3185C330.145 56.2497 347.508 98.1172 372.418 90.0291Z" fill="url(#paint0_linear_0:1)"/>
<path fill-rule="evenodd" clip-rule="evenodd" d="M372.418 90.0291C412.241 77.0987 419.221 10.2785 460.2 1.68351C489.124 -4.3833 562.819 30.9403 520 67.8215C518.01 118.55 662.271 136.719 648 185.44C644.107 198.732 479.522 184.924 489.5 194.53C473.5 243.94 531.899 251.53 545.736 277.588C560.872 306.095 563.953 339.803 562.819 372.059C561.327 414.458 579.014 506.874 538.061 495.798C464.945 476.023 464.678 341.215 390.588 325.477C344.623 315.714 377.516 455.084 330.645 451.741C286.219 448.571 355.75 339.293 315.547 320.124C269.444 298.142 220.086 401.198 174.861 377.463C140.21 359.276 248.407 299.989 222.056 271.057C170.647 214.612 42.6221 262.7 8.24714 194.53C-15.4977 147.44 97.2495 140.469 142.839 113.959C170.516 97.8647 196.236 79.243 226.145 67.8215C251.155 58.2708 277.784 48.3 304.252 52.3185C330.145 56.2497 347.508 98.1172 372.418 90.0291Z" stroke="black"/>
</g>
<path fill-rule="evenodd" clip-rule="evenodd" d="M496.563 25.0131C500.118 25.1354 503.453 26.4336 506.577 28.1312C509.757 29.8596 512.813 31.9074 514.802 34.9254C516.851 38.0333 518.186 41.7125 517.979 45.426C517.776 49.064 515.436 52.0845 513.667 55.2727C511.866 58.5172 510.653 62.3497 507.499 64.3136C504.319 66.2934 500.31 66.0374 496.563 65.9222C492.904 65.8098 489.136 65.5525 486.01 63.6532C482.913 61.772 480.98 58.5713 479.24 55.3992C477.529 52.2812 476.119 48.9784 476.009 45.426C475.897 41.8143 476.838 38.2422 478.612 35.0914C480.398 31.9189 482.963 29.2133 486.142 27.4283C489.304 25.6534 492.937 24.8883 496.563 25.0131Z" fill="url(#paint1_linear_0:1)" stroke="black"/>
<path fill-rule="evenodd" clip-rule="evenodd" d="M499.282 36.0064C501.059 36.066 502.727 36.6993 504.288 37.5274C505.879 38.3706 507.406 39.3695 508.401 40.8417C509.426 42.3577 510.093 44.1524 509.989 45.9639C509.888 47.7386 508.718 49.212 507.833 50.7672C506.933 52.3499 506.327 54.2194 504.749 55.1774C503.16 56.1431 501.155 56.0182 499.282 55.9621C497.452 55.9072 495.568 55.7817 494.005 54.8552C492.456 53.9376 491.49 52.3763 490.62 50.8289C489.765 49.3079 489.059 47.6968 489.004 45.9639C488.949 44.2021 489.419 42.4596 490.306 40.9226C491.199 39.3751 492.482 38.0553 494.071 37.1845C495.652 36.3188 497.469 35.9455 499.282 36.0064Z" fill="url(#paint2_linear_0:1)" stroke="black"/>
<defs>
<filter id="filter0_d_0:1" x="0.5" y="0.5" width="652.995" height="504.712" filterUnits="userSpaceOnUse" color-interpolation-filters="sRGB">
<feFlood flood-opacity="0" result="BackgroundImageFix"/>
<feColorMatrix in="SourceAlpha" type="matrix" values="0 0 0 0 0 0 0 0 0 0 0 0 0 0 0 0 0 0 127 0" result="hardAlpha"/>
<feOffset dy="4"/>
<feGaussianBlur stdDeviation="2"/>
<feColorMatrix type="matrix" values="0 0 0 0 0 0 0 0 0 0 0 0 0 0 0 0 0 0 0.25 0"/>
<feBlend mode="normal" in2="BackgroundImageFix" result="effect1_dropShadow_0:1"/>
<feBlend mode="normal" in="SourceGraphic" in2="effect1_dropShadow_0:1" result="shape"/>
</filter>
<linearGradient id="paint0_linear_0:1" x1="326.997" y1="1" x2="326.997" y2="496.712" gradientUnits="userSpaceOnUse">
<stop stop-color="#8F99F1"/>
<stop offset="0.979167" stop-color="#F91F1F"/>
</linearGradient>
<linearGradient id="paint1_linear_0:1" x1="497" y1="25" x2="497" y2="66" gradientUnits="userSpaceOnUse">
<stop stop-color="white"/>
</linearGradient>
<linearGradient id="paint2_linear_0:1" x1="499.5" y1="36" x2="499.5" y2="56" gradientUnits="userSpaceOnUse">
<stop stop-color="#1E1B1B"/>
<stop offset="1" stop-color="#1E1B1B"/>
</linearGradient>
</defs>
</svg>
