<svg viewBox="0 0 654 506" fill="none" xmlns="http://www.w3.org/2000/svg"><g filter="url(#filter0_d_0:1)" clip-rule="evenodd"><path fill-rule="evenodd" d="M372.418 90.03c39.823-12.931 46.803-79.752 87.782-88.346C489.124-4.383 562.819 30.94 520 67.822c-1.99 50.728 142.271 68.897 128 117.618-3.893 13.292-168.478-.516-158.5 9.09-16 49.41 42.399 57 56.236 83.058 15.136 28.507 18.217 62.215 17.083 94.471-1.492 42.399 16.195 134.815-24.758 123.739-73.116-19.775-73.383-154.583-147.473-170.321-45.965-9.763-13.072 129.607-59.943 126.264-44.426-3.17 25.105-112.448-15.098-131.617-46.103-21.982-95.461 81.074-140.686 57.339-34.651-18.187 73.546-77.474 47.195-106.406C170.647 214.612 42.622 262.7 8.247 194.53c-23.745-47.09 89.002-54.061 134.592-80.571 27.677-16.094 53.397-34.716 83.306-46.138 25.01-9.55 51.639-19.521 78.107-15.502 25.893 3.93 43.256 45.798 68.166 37.71z" fill="url(#paint0_linear_0:1)"/><path d="M372.418 90.03c39.823-12.931 46.803-79.752 87.782-88.346C489.124-4.383 562.819 30.94 520 67.822c-1.99 50.728 142.271 68.897 128 117.618-3.893 13.292-168.478-.516-158.5 9.09-16 49.41 42.399 57 56.236 83.058 15.136 28.507 18.217 62.215 17.083 94.471-1.492 42.399 16.195 134.815-24.758 123.739-73.116-19.775-73.383-154.583-147.473-170.321-45.965-9.763-13.072 129.607-59.943 126.264-44.426-3.17 25.105-112.448-15.098-131.617-46.103-21.982-95.461 81.074-140.686 57.339-34.651-18.187 73.546-77.474 47.195-106.406C170.647 214.612 42.622 262.7 8.247 194.53c-23.745-47.09 89.002-54.061 134.592-80.571 27.677-16.094 53.397-34.716 83.306-46.138 25.01-9.55 51.639-19.521 78.107-15.502 25.893 3.93 43.256 45.798 68.166 37.71z" stroke="#000"/></g><path fill-rule="evenodd" clip-rule="evenodd" d="M496.563 25.013c3.555.122 6.89 1.42 10.014 3.118 3.18 1.729 6.236 3.776 8.225 6.794 2.049 3.108 3.384 6.788 3.177 10.501-.203 3.638-2.543 6.658-4.312 9.847-1.801 3.244-3.014 7.077-6.168 9.04-3.18 1.98-7.189 1.724-10.936 1.61-3.659-.113-7.427-.37-10.553-2.27-3.097-1.881-5.03-5.082-6.77-8.254-1.711-3.118-3.121-6.42-3.231-9.973-.112-3.612.829-7.184 2.603-10.335 1.786-3.172 4.351-5.878 7.53-7.663 3.162-1.775 6.795-2.54 10.421-2.415z" fill="url(#paint1_linear_0:1)" stroke="#000"/><path fill-rule="evenodd" clip-rule="evenodd" d="M499.282 36.006c1.777.06 3.445.693 5.006 1.521 1.591.844 3.118 1.843 4.113 3.315 1.025 1.516 1.692 3.31 1.588 5.122-.101 1.775-1.271 3.248-2.156 4.803-.9 1.583-1.506 3.452-3.084 4.41-1.589.966-3.594.841-5.467.785-1.83-.055-3.714-.18-5.277-1.107-1.549-.917-2.515-2.479-3.385-4.026-.855-1.521-1.561-3.132-1.616-4.865-.055-1.762.415-3.504 1.302-5.041.893-1.548 2.176-2.868 3.765-3.739 1.581-.865 3.398-1.238 5.211-1.178z" fill="url(#paint2_linear_0:1)" stroke="#000"/><defs><linearGradient id="paint0_linear_0:1" x1="326.997" y1="1" x2="326.997" y2="496.712" gradientUnits="userSpaceOnUse"><stop stop-color="#8F99F1"/><stop offset=".979" stop-color="#F91F1F"/></linearGradient><linearGradient id="paint1_linear_0:1" x1="497" y1="25" x2="497" y2="66" gradientUnits="userSpaceOnUse"><stop stop-color="#fff"/></linearGradient><linearGradient id="paint2_linear_0:1" x1="499.5" y1="36" x2="499.5" y2="56" gradientUnits="userSpaceOnUse"><stop stop-color="#1E1B1B"/><stop offset="1" stop-color="#1E1B1B"/></linearGradient><filter id="filter0_d_0:1" x=".5" y=".5" width="652.995" height="504.712" filterUnits="userSpaceOnUse" color-interpolation-filters="sRGB"><feFlood flood-opacity="0" result="BackgroundImageFix"/><feColorMatrix in="SourceAlpha" values="0 0 0 0 0 0 0 0 0 0 0 0 0 0 0 0 0 0 127 0" result="hardAlpha"/><feOffset dy="4"/><feGaussianBlur stdDeviation="2"/><feColorMatrix values="0 0 0 0 0 0 0 0 0 0 0 0 0 0 0 0 0 0 0.25 0"/><feBlend in2="BackgroundImageFix" result="effect1_dropShadow_0:1"/><feBlend in="SourceGraphic" in2="effect1_dropShadow_0:1" result="shape"/></filter></defs></svg>