<svg xmlns="http://www.w3.org/2000/svg" viewBox="0 0 5335.73 1618.51"><defs><style>.cls-1,.cls-22{fill:#fff}.cls-1{stroke:#1d1d1b;stroke-miterlimit:10}.cls-3,.cls-5{font-size:44.82px}.cls-21,.cls-22,.cls-3,.cls-5{font-family:HelveticaNeue-Bold,Helvetica Neue;font-weight:700}.cls-4{letter-spacing:-.07em}.cls-5{letter-spacing:0}.cls-6,.cls-8{font-size:49.8px}.cls-6,.cls-7{font-family:HelveticaNeue,Helvetica Neue}.cls-7,.cls-9{font-size:47.81px}.cls-8{font-family:HelveticaNeue-Medium,Helvetica Neue;font-weight:500}.cls-9{font-family:HelveticaNeue-Light,Helvetica Neue;font-weight:300}.cls-12{letter-spacing:-.09em}.cls-16{letter-spacing:-.02em}.cls-21,.cls-22{font-size:100px}.cls-28{letter-spacing:-.02em}.cls-32{letter-spacing:0}</style></defs><g id="Слой_2" data-name="Слой 2"><g id="Слой_1-2" data-name="Слой 1"><path class="cls-1" d="M.5.5h510v510H.5z"/><path fill="#edf1ff" stroke="#1d1d1b" stroke-miterlimit="10" d="M.5.5h510v328.34H.5z"/><text class="cls-3" transform="translate(26.8 379.72)"><tspan class="cls-4">P</tspan><tspan x="26.58" y="0">ANTONE</tspan></text><text class="cls-5" transform="matrix(.58 0 0 .58 241.82 364.79)">®</text><text class="cls-6" transform="matrix(.58 0 0 .58 310.26 419.32)">15-4020 TCX</text><text class="cls-7" transform="matrix(.58 0 0 .58 312.78 449.1)">Cerulean</text><text class="cls-8" transform="matrix(.58 0 0 .58 30.06 420.82)">L*a*b*<tspan x="0" y="51.62">sRGB</tspan><tspan x="0" y="103.24">HEX</tspan></text><text class="cls-9" transform="matrix(.58 0 0 .58 125.34 420.55)">73 -5 -18<tspan x="0" y="51.62">155 183 212</tspan><tspan x="0" y="103.24">9BB7D4</tspan></text><path class="cls-1" d="M536.58.5h510v510h-510z"/><path fill="#c74375" stroke="#1d1d1b" stroke-miterlimit="10" d="M536.58.5h510v328.34h-510z"/><text class="cls-3" transform="translate(562.88 379.72)"><tspan class="cls-4">P</tspan><tspan x="26.58" y="0">ANTONE</tspan></text><text class="cls-5" transform="matrix(.58 0 0 .58 777.9 364.79)">®</text><text class="cls-6" transform="matrix(.58 0 0 .58 846.34 419.32)">17-2031 TCX</text><text class="cls-7" transform="matrix(.58 0 0 .58 848.86 449.1)">Fuchsia Rose</text><text class="cls-8" transform="matrix(.58 0 0 .58 566.14 420.82)">L*a*b*<tspan x="0" y="51.62">sRGB</tspan><tspan x="0" y="103.24">HEX</tspan></text><text class="cls-9" transform="matrix(.58 0 0 .58 663.56 420.34)">50 57 4<tspan x="0" y="51.62">199 67 117</tspan><tspan x="0" y="103.24">C74375</tspan></text><path class="cls-1" d="M1072.66.5h510v510h-510z"/><path fill="#bf1932" stroke="#1d1d1b" stroke-miterlimit="10" d="M1072.66.5h510v328.34h-510z"/><text class="cls-3" transform="translate(1098.96 379.72)"><tspan class="cls-4">P</tspan><tspan x="26.58" y="0">ANTONE</tspan></text><text class="cls-5" transform="matrix(.58 0 0 .58 1313.98 364.79)">®</text><text class="cls-6" transform="matrix(.58 0 0 .58 1382.42 419.32)">19-1664 TCX</text><text class="cls-7" transform="matrix(.58 0 0 .58 1384.94 449.1)"><tspan class="cls-12">T</tspan><tspan x="23.05" y="0">rue Red</tspan></text><text class="cls-8" transform="matrix(.58 0 0 .58 1102.22 420.82)">L*a*b*<tspan x="0" y="51.62">sRGB</tspan><tspan x="0" y="103.24">HEX</tspan></text><text class="cls-9" transform="matrix(.58 0 0 .58 1198.63 420.3)">43 65 35<tspan x="0" y="51.62">191 25 50</tspan><tspan x="0" y="103.24">BF1932</tspan></text><path class="cls-1" d="M1608.74.5h510v510h-510z"/><path fill="#7bc4c4" stroke="#1d1d1b" stroke-miterlimit="10" d="M1608.74.5h510v328.34h-510z"/><text class="cls-3" transform="translate(1635.04 379.72)"><tspan class="cls-4">P</tspan><tspan x="26.58" y="0">ANTONE</tspan></text><text class="cls-5" transform="matrix(.58 0 0 .58 1850.06 364.79)">®</text><text class="cls-6" transform="matrix(.58 0 0 .58 1918.5 419.32)">14-4811 TCX</text><text class="cls-7" transform="matrix(.58 0 0 .58 1921.02 449.1)">Aqua Sky</text><text class="cls-8" transform="matrix(.58 0 0 .58 1638.3 420.82)">L*a*b*<tspan x="0" y="51.62">sRGB</tspan><tspan x="0" y="103.24">HEX</tspan></text><text class="cls-9" transform="matrix(.58 0 0 .58 1734.71 420.3)">74 -24 -9<tspan x="0" y="51.62">123 196 196</tspan><tspan x="0" y="103.24">7BC4C4</tspan></text><path class="cls-1" d="M2144.82.5h510v510h-510z"/><path fill="#e2583e" stroke="#1d1d1b" stroke-miterlimit="10" d="M2144.82.5h510v328.34h-510z"/><text class="cls-3" transform="translate(2171.12 379.72)"><tspan class="cls-4">P</tspan><tspan x="26.58" y="0">ANTONE</tspan></text><text class="cls-5" transform="matrix(.58 0 0 .58 2386.15 364.79)">®</text><text class="cls-6" transform="matrix(.58 0 0 .58 2454.58 419.32)">17-1456 TCX</text><text class="cls-7" transform="matrix(.58 0 0 .58 2457.11 449.1)">Tigerlily</text><text class="cls-8" transform="matrix(.58 0 0 .58 2174.38 420.82)">L*a*b*<tspan x="0" y="51.62">sRGB</tspan><tspan x="0" y="103.24">HEX</tspan></text><text class="cls-9" transform="matrix(.58 0 0 .58 2270.79 420.3)">57 55 45<tspan x="0" y="51.62">226 88 62</tspan><tspan x="0" y="103.24">E2583E</tspan></text><path class="cls-1" d="M2680.9.5h510v510h-510z"/><path fill="#53b0ae" stroke="#1d1d1b" stroke-miterlimit="10" d="M2680.9.5h510v328.34h-510z"/><text class="cls-3" transform="translate(2707.21 379.72)"><tspan class="cls-4">P</tspan><tspan x="26.58" y="0">ANTONE</tspan></text><text class="cls-5" transform="matrix(.58 0 0 .58 2922.23 364.79)">®</text><text class="cls-6" transform="matrix(.58 0 0 .58 2990.66 419.32)">15-5217 TCX</text><text class="cls-7" transform="matrix(.58 0 0 .58 2993.19 449.1)">Blue <tspan class="cls-12" x="108.92" y="0">T</tspan><tspan x="131.96" y="0">u</tspan><tspan class="cls-16" x="158.54" y="0">r</tspan><tspan x="173.61" y="0">quoise</tspan></text><text class="cls-8" transform="matrix(.58 0 0 .58 2710.46 420.82)">L*a*b*<tspan x="0" y="51.62">sRGB</tspan><tspan x="0" y="103.24">HEX</tspan></text><text class="cls-9" transform="matrix(.58 0 0 .58 2806.87 420.3)">66 -29 -9<tspan x="0" y="51.62">83 176 174</tspan><tspan x="0" y="103.24">53B0AE</tspan></text><path class="cls-1" d="M3216.98.5h510v510h-510z"/><path fill="#decdbe" stroke="#1d1d1b" stroke-miterlimit="10" d="M3216.98.5h510v328.34h-510z"/><text class="cls-3" transform="translate(3243.29 379.72)"><tspan class="cls-4">P</tspan><tspan x="26.58" y="0">ANTONE</tspan></text><text class="cls-5" transform="matrix(.58 0 0 .58 3458.31 364.79)">®</text><text class="cls-6" transform="matrix(.58 0 0 .58 3526.74 419.32)">13-1106 TCX</text><text class="cls-7" transform="matrix(.58 0 0 .58 3529.27 449.1)">Sand Dollar</text><text class="cls-8" transform="matrix(.58 0 0 .58 3246.54 420.82)">L*a*b*<tspan x="0" y="51.62">sRGB</tspan><tspan x="0" y="103.24">HEX</tspan></text><text class="cls-9" transform="matrix(.58 0 0 .58 3342.96 420.3)">84 5 10<tspan x="0" y="51.62">222 205 190</tspan><tspan x="0" y="103.24">DECDBE</tspan></text><path class="cls-1" d="M3753.06.5h510v510h-510z"/><path fill="#9b1b30" stroke="#1d1d1b" stroke-miterlimit="10" d="M3753.06.5h510v328.34h-510z"/><text class="cls-3" transform="translate(3779.37 379.72)"><tspan class="cls-4">P</tspan><tspan x="26.58" y="0">ANTONE</tspan></text><text class="cls-5" transform="matrix(.58 0 0 .58 3994.39 364.79)">®</text><text class="cls-6" transform="matrix(.58 0 0 .58 4062.82 419.32)">19-1557 TCX</text><text class="cls-7" transform="matrix(.58 0 0 .58 4065.35 449.1)">Chili Pepper</text><text class="cls-8" transform="matrix(.58 0 0 .58 3782.62 420.82)">L*a*b*<tspan x="0" y="51.62">sRGB</tspan><tspan x="0" y="103.24">HEX</tspan></text><text class="cls-9" transform="matrix(.58 0 0 .58 3879.04 420.3)">36 55 25<tspan x="0" y="51.62">155 27 48</tspan><tspan x="0" y="103.24">9B1B30</tspan></text><path class="cls-1" d="M4289.14.5h510v510h-510z"/><path fill="#5a5b9f" stroke="#1d1d1b" stroke-miterlimit="10" d="M4289.14.5h510v328.34h-510z"/><text class="cls-3" transform="translate(4315.45 379.72)"><tspan class="cls-4">P</tspan><tspan x="26.58" y="0">ANTONE</tspan></text><text class="cls-5" transform="matrix(.58 0 0 .58 4530.47 364.79)">®</text><text class="cls-6" transform="matrix(.58 0 0 .58 4598.9 419.32)">18-3943 TCX</text><text class="cls-7" transform="matrix(.58 0 0 .58 4601.43 449.1)">Blue Iris</text><text class="cls-8" transform="matrix(.58 0 0 .58 4318.7 420.82)">L*a*b*<tspan x="0" y="51.62">sRGB</tspan><tspan x="0" y="103.24">HEX</tspan></text><text class="cls-9" transform="matrix(.58 0 0 .58 4415.12 420.3)">41 13 -37<tspan x="0" y="51.62">90 91 159</tspan><tspan x="0" y="103.24">5A5B9F</tspan></text><path class="cls-1" d="M4825.23.5h510v510h-510z"/><path fill="#f0c05a" stroke="#1d1d1b" stroke-miterlimit="10" d="M4825.23.5h510v328.34h-510z"/><text class="cls-3" transform="translate(4851.53 379.72)"><tspan class="cls-4">P</tspan><tspan x="26.58" y="0">ANTONE</tspan></text><text class="cls-5" transform="matrix(.58 0 0 .58 5066.55 364.79)">®</text><text class="cls-6" transform="matrix(.58 0 0 .58 5134.98 419.32)">14-0848 TCX</text><text class="cls-7" transform="matrix(.58 0 0 .58 5137.51 449.1)">Mimosa</text><text class="cls-8" transform="matrix(.58 0 0 .58 4854.78 420.82)">L*a*b*<tspan x="0" y="51.62">sRGB</tspan><tspan x="0" y="103.24">HEX</tspan></text><text class="cls-9" transform="matrix(.58 0 0 .58 4951.2 420.3)">81 10 57<tspan x="0" y="51.62">240 192 90</tspan><tspan x="0" y="103.24">F0C05A</tspan></text><text class="cls-21" transform="matrix(.58 0 0 .58 349.94 74.4)">2000</text><text class="cls-22" transform="matrix(.58 0 0 .58 886.02 74.4)">2001</text><text class="cls-22" transform="matrix(.58 0 0 .58 1422.1 74.4)">2002</text><text class="cls-21" transform="matrix(.58 0 0 .58 1958.18 74.4)">2003</text><text class="cls-22" transform="matrix(.58 0 0 .58 2494.26 74.4)">2004</text><text class="cls-21" transform="matrix(.58 0 0 .58 3030.34 74.4)">2005</text><text class="cls-21" transform="matrix(.58 0 0 .58 3566.42 74.4)">2006</text><text class="cls-22" transform="matrix(.58 0 0 .58 4103.13 74.4)">2007</text><text class="cls-22" transform="matrix(.58 0 0 .58 4638.58 74.4)">2008</text><text class="cls-21" transform="matrix(.58 0 0 .58 5174.11 74.4)">2009</text><path class="cls-1" d="M.5 1108.01h510v510H.5z"/><path fill="#ff6f61" stroke="#1d1d1b" stroke-miterlimit="10" d="M.5 1108.01h510v328.34H.5z"/><text class="cls-3" transform="translate(26.8 1487.23)"><tspan class="cls-4">P</tspan><tspan x="26.58" y="0">ANTONE</tspan></text><text class="cls-5" transform="matrix(.58 0 0 .58 241.82 1472.31)">®</text><text class="cls-6" transform="matrix(.58 0 0 .58 310.26 1526.84)">16-1546 TCX</text><text class="cls-7" transform="matrix(.58 0 0 .58 312.78 1556.61)">Living Coral</text><text class="cls-8" transform="matrix(.58 0 0 .58 30.06 1528.33)">L*a*b*<tspan x="0" y="51.62">sRGB</tspan><tspan x="0" y="103.24">HEX</tspan></text><text class="cls-9" transform="matrix(.58 0 0 .58 125.34 1528.07)">66 57 39<tspan x="0" y="51.62">255 111 97</tspan><tspan x="0" y="103.24">FF6F61</tspan></text><path class="cls-1" d="M536.58 1108.01h510v510h-510z"/><path fill="#0f4c81" stroke="#1d1d1b" stroke-miterlimit="10" d="M536.58 1108.01h510v328.34h-510z"/><text class="cls-3" transform="translate(562.88 1487.23)"><tspan class="cls-4">P</tspan><tspan x="26.58" y="0">ANTONE</tspan></text><text class="cls-5" transform="matrix(.58 0 0 .58 777.9 1472.31)">®</text><text class="cls-6" transform="matrix(.58 0 0 .58 846.34 1526.84)">19-4052 TCX</text><text class="cls-7" transform="matrix(.58 0 0 .58 848.86 1556.61)">Classic Blue</text><text class="cls-8" transform="matrix(.58 0 0 .58 566.14 1528.33)">L*a*b*<tspan x="0" y="51.62">sRGB</tspan><tspan x="0" y="103.24">HEX</tspan></text><text class="cls-9" transform="matrix(.58 0 0 .58 663.56 1527.86)">31 -4 -36<tspan x="0" y="51.62">15 76 129</tspan><tspan x="0" y="103.24">0F4C81</tspan></text><path class="cls-1" d="M1072.66 1108.01h510v510h-510z"/><path fill="#939597" stroke="#1d1d1b" stroke-miterlimit="10" d="M1072.66 1108.01h510v328.34h-510z"/><text class="cls-3" transform="translate(1098.96 1487.23)"><tspan class="cls-4">P</tspan><tspan x="26.58" y="0">ANTONE</tspan></text><text class="cls-5" transform="matrix(.58 0 0 .58 1313.98 1472.31)">®</text><text class="cls-6" transform="matrix(.58 0 0 .58 1382.42 1526.84)">17-5104 TCX</text><text class="cls-7" transform="matrix(.58 0 0 .58 1384.94 1556.61)">Ultimate Gray</text><text class="cls-8" transform="matrix(.58 0 0 .58 1102.22 1528.33)">L*a*b*<tspan x="0" y="51.62">sRGB</tspan><tspan x="0" y="103.24">HEX</tspan></text><text class="cls-9" transform="matrix(.58 0 0 .58 1198.63 1527.81)">62 0 -1<tspan x="0" y="51.62">147 149 151</tspan><tspan x="0" y="103.24">939597</tspan></text><path class="cls-1" d="M1608.74 1108.01h510v510h-510z"/><path fill="#f5df4d" stroke="#1d1d1b" stroke-miterlimit="10" d="M1608.74 1108.01h510v328.34h-510z"/><text class="cls-3" transform="translate(1635.04 1487.23)"><tspan class="cls-4">P</tspan><tspan x="26.58" y="0">ANTONE</tspan></text><text class="cls-5" transform="matrix(.58 0 0 .58 1850.06 1472.31)">®</text><text class="cls-6" transform="matrix(.58 0 0 .58 1918.5 1526.84)">13-0647 TCX</text><text class="cls-7" transform="matrix(.58 0 0 .58 1921.02 1556.61)">Illuminating</text><text class="cls-8" transform="matrix(.58 0 0 .58 1638.3 1528.33)">L*a*b*<tspan x="0" y="51.62">sRGB</tspan><tspan x="0" y="103.24">HEX</tspan></text><text class="cls-9" transform="matrix(.58 0 0 .58 1734.71 1527.81)">89 -3 70<tspan x="0" y="51.62">245 223 77</tspan><tspan x="0" y="103.24">F5DF4D</tspan></text><text class="cls-21" transform="matrix(.58 0 0 .58 349.94 1181.92)">2019</text><text class="cls-22" transform="matrix(.58 0 0 .58 886.02 1181.92)">2020</text><text class="cls-21" transform="matrix(.58 0 0 .58 1422.1 1181.92)">2021</text><text class="cls-21" transform="matrix(.58 0 0 .58 1958.18 1181.92)">2021</text><path class="cls-1" d="M.5 554.26h510v510H.5z"/><path fill="#45b5aa" stroke="#1d1d1b" stroke-miterlimit="10" d="M.5 554.26h510V882.6H.5z"/><text class="cls-3" transform="translate(26.8 933.47)"><tspan class="cls-4">P</tspan><tspan x="26.58" y="0">ANTONE</tspan></text><text class="cls-5" transform="matrix(.58 0 0 .58 241.82 918.55)">®</text><text class="cls-6" transform="matrix(.58 0 0 .58 310.26 973.08)">15-5519 TCX</text><text class="cls-7" transform="matrix(.58 0 0 .58 312.78 1002.86)"><tspan class="cls-12">T</tspan><tspan x="23.05" y="0">u</tspan><tspan class="cls-28" x="49.63" y="0">r</tspan><tspan x="64.69" y="0">quoise</tspan></text><text class="cls-8" transform="matrix(.58 0 0 .58 30.06 974.58)">L*a*b*<tspan x="0" y="51.62">sRGB</tspan><tspan x="0" y="103.24">HEX</tspan></text><text class="cls-9" transform="matrix(.58 0 0 .58 125.34 974.31)">67 -35 -6<tspan x="0" y="51.62">69 181 170</tspan><tspan x="0" y="103.24">45B5AA</tspan></text><path class="cls-1" d="M536.58 554.26h510v510h-510z"/><path fill="#d94f70" stroke="#1d1d1b" stroke-miterlimit="10" d="M536.58 554.26h510V882.6h-510z"/><text class="cls-3" transform="translate(562.88 933.47)"><tspan class="cls-4">P</tspan><tspan x="26.58" y="0">ANTONE</tspan></text><text class="cls-5" transform="matrix(.58 0 0 .58 777.9 918.55)">®</text><text class="cls-6" transform="matrix(.58 0 0 .58 846.34 973.08)">18-2120 TCX</text><text class="cls-7" transform="matrix(.58 0 0 .58 848.86 1002.86)">Honeysuckle</text><text class="cls-8" transform="matrix(.58 0 0 .58 566.14 974.58)">L*a*b*<tspan x="0" y="51.62">sRGB</tspan><tspan x="0" y="103.24">HEX</tspan></text><text class="cls-9" transform="matrix(.58 0 0 .58 663.56 974.1)">55 58 14<tspan x="0" y="51.62">217 79 112</tspan><tspan x="0" y="103.24">D94F70</tspan></text><path class="cls-1" d="M1072.66 554.26h510v510h-510z"/><path fill="#dd4124" stroke="#1d1d1b" stroke-miterlimit="10" d="M1072.66 554.26h510V882.6h-510z"/><text class="cls-3" transform="translate(1098.96 933.47)"><tspan class="cls-4">P</tspan><tspan x="26.58" y="0">ANTONE</tspan></text><text class="cls-5" transform="matrix(.58 0 0 .58 1313.98 918.55)">®</text><text class="cls-6" transform="matrix(.58 0 0 .58 1382.42 973.08)">17-1463 TCX</text><text transform="matrix(.58 0 0 .58 1384.94 1002.86)" letter-spacing="-.11em" font-size="47.81" font-family="HelveticaNeue,Helvetica Neue">T<tspan class="cls-32" x="22.14" y="0">angerine </tspan><tspan x="0" y="49.74">T</tspan><tspan class="cls-32" x="22.14" y="49.74">ango</tspan></text><text class="cls-8" transform="matrix(.58 0 0 .58 1102.22 974.58)">L*a*b*<tspan x="0" y="51.62">sRGB</tspan><tspan x="0" y="103.24">HEX</tspan></text><text class="cls-9" transform="matrix(.58 0 0 .58 1198.63 974.05)">53 62 54<tspan x="0" y="51.62">221 65 36</tspan><tspan x="0" y="103.24">DD4124</tspan></text><path class="cls-1" d="M1608.74 554.26h510v510h-510z"/><path fill="#009473" stroke="#1d1d1b" stroke-miterlimit="10" d="M1608.74 554.26h510V882.6h-510z"/><text class="cls-3" transform="translate(1635.04 933.47)"><tspan class="cls-4">P</tspan><tspan x="26.58" y="0">ANTONE</tspan></text><text class="cls-5" transform="matrix(.58 0 0 .58 1850.06 918.55)">®</text><text class="cls-6" transform="matrix(.58 0 0 .58 1918.5 973.08)">17-5641 TCX</text><text class="cls-7" transform="matrix(.58 0 0 .58 1921.02 1002.86)">Emerald</text><text class="cls-8" transform="matrix(.58 0 0 .58 1638.3 974.58)">L*a*b*<tspan x="0" y="51.62">sRGB</tspan><tspan x="0" y="103.24">HEX</tspan></text><text class="cls-9" transform="matrix(.58 0 0 .58 1734.71 974.05)">53 -51 4<tspan x="0" y="51.62">0 148 115</tspan><tspan x="0" y="103.24">009473</tspan></text><path class="cls-1" d="M2144.82 554.26h510v510h-510z"/><path fill="#ad5e99" stroke="#1d1d1b" stroke-miterlimit="10" d="M2144.82 554.26h510V882.6h-510z"/><text class="cls-3" transform="translate(2171.12 933.47)"><tspan class="cls-4">P</tspan><tspan x="26.58" y="0">ANTONE</tspan></text><text class="cls-5" transform="matrix(.58 0 0 .58 2386.15 918.55)">®</text><text class="cls-6" transform="matrix(.58 0 0 .58 2454.58 973.08)">18-3224 TCX</text><text class="cls-7" transform="matrix(.58 0 0 .58 2457.11 1002.86)">Radiant O<tspan class="cls-16" x="214.34" y="0">r</tspan><tspan x="229.4" y="0">chid</tspan></text><text class="cls-8" transform="matrix(.58 0 0 .58 2174.38 974.58)">L*a*b*<tspan x="0" y="51.62">sRGB</tspan><tspan x="0" y="103.24">HEX</tspan></text><text class="cls-9" transform="matrix(.58 0 0 .58 2270.79 974.05)">52 39 -17<tspan x="0" y="51.62">173 94 153</tspan><tspan x="0" y="103.24">AD5E99</tspan></text><path class="cls-1" d="M2680.9 554.26h510v510h-510z"/><path fill="#964f4c" stroke="#1d1d1b" stroke-miterlimit="10" d="M2680.9 554.26h510V882.6h-510z"/><text class="cls-3" transform="translate(2707.21 933.47)"><tspan class="cls-4">P</tspan><tspan x="26.58" y="0">ANTONE</tspan></text><text class="cls-5" transform="matrix(.58 0 0 .58 2922.23 918.55)">®</text><text class="cls-6" transform="matrix(.58 0 0 .58 2990.66 973.08)">18-1438 TCX</text><text class="cls-7" transform="matrix(.58 0 0 .58 2993.19 1002.86)">Marsala</text><text class="cls-8" transform="matrix(.58 0 0 .58 2710.46 974.58)">L*a*b*<tspan x="0" y="51.62">sRGB</tspan><tspan x="0" y="103.24">HEX</tspan></text><text class="cls-9" transform="matrix(.58 0 0 .58 2806.87 974.05)">43 31 17<tspan x="0" y="51.62">150 79 76</tspan><tspan x="0" y="103.24">964F4C</tspan></text><path class="cls-1" d="M3216.98 554.26h510v510h-510z"/><path fill="#93a9d1" stroke="#1d1d1b" stroke-miterlimit="10" d="M3216.98 554.26h510V882.6h-510z"/><text class="cls-3" transform="translate(3243.29 933.47)"><tspan class="cls-4">P</tspan><tspan x="26.58" y="0">ANTONE</tspan></text><text class="cls-5" transform="matrix(.58 0 0 .58 3458.31 918.55)">®</text><text class="cls-6" transform="matrix(.58 0 0 .58 3526.74 973.08)">15-3919 TCX</text><text class="cls-7" transform="matrix(.58 0 0 .58 3529.27 1002.86)">Se<tspan class="cls-16" x="56.66" y="0">r</tspan><tspan x="71.72" y="0">enity</tspan></text><text class="cls-8" transform="matrix(.58 0 0 .58 3246.54 974.58)">L*a*b*<tspan x="0" y="51.62">sRGB</tspan><tspan x="0" y="103.24">HEX</tspan></text><text class="cls-9" transform="matrix(.58 0 0 .58 3342.96 974.05)">68 -2 -23<tspan x="0" y="51.62">147 169 209</tspan><tspan x="0" y="103.24">93A9D1</tspan></text><path class="cls-1" d="M3753.06 554.26h510v510h-510z"/><path fill="#f7caca" stroke="#1d1d1b" stroke-miterlimit="10" d="M3753.06 554.26h510V882.6h-510z"/><text class="cls-3" transform="translate(3779.37 933.47)"><tspan class="cls-4">P</tspan><tspan x="26.58" y="0">ANTONE</tspan></text><text class="cls-5" transform="matrix(.58 0 0 .58 3994.39 918.55)">®</text><text class="cls-6" transform="matrix(.58 0 0 .58 4062.82 973.08)">13-1520 TCX</text><text class="cls-7" transform="matrix(.58 0 0 .58 4065.35 1002.86)">Rose Quartz</text><text class="cls-8" transform="matrix(.58 0 0 .58 3782.62 974.58)">L*a*b*<tspan x="0" y="51.62">sRGB</tspan><tspan x="0" y="103.24">HEX</tspan></text><text class="cls-9" transform="matrix(.58 0 0 .58 3879.04 974.05)">86 17 7<tspan x="0" y="51.62">247 202 202</tspan><tspan x="0" y="103.24">F7CACA</tspan></text><path class="cls-1" d="M4289.14 554.26h510v510h-510z"/><path fill="#88b04b" stroke="#1d1d1b" stroke-miterlimit="10" d="M4289.14 554.26h510V882.6h-510z"/><text class="cls-3" transform="translate(4315.45 933.47)"><tspan class="cls-4">P</tspan><tspan x="26.58" y="0">ANTONE</tspan></text><text class="cls-5" transform="matrix(.58 0 0 .58 4530.47 918.55)">®</text><text class="cls-6" transform="matrix(.58 0 0 .58 4598.9 973.08)">15-0343 TCX</text><text class="cls-7" transform="matrix(.58 0 0 .58 4601.43 1002.86)">G<tspan class="cls-28" x="36.29" y="0">r</tspan><tspan class="cls-32" x="51.35" y="0">eenery</tspan></text><text class="cls-8" transform="matrix(.58 0 0 .58 4318.7 974.58)">L*a*b*<tspan x="0" y="51.62">sRGB</tspan><tspan x="0" y="103.24">HEX</tspan></text><text class="cls-9" transform="matrix(.58 0 0 .58 4415.12 974.05)">67 -27 45<tspan x="0" y="51.62">136 176 75</tspan><tspan x="0" y="103.24">88B04B</tspan></text><path class="cls-1" d="M4825.23 554.26h510v510h-510z"/><path fill="#5f4b8b" stroke="#1d1d1b" stroke-miterlimit="10" d="M4825.23 554.26h510V882.6h-510z"/><text class="cls-3" transform="translate(4851.53 933.47)"><tspan class="cls-4">P</tspan><tspan x="26.58" y="0">ANTONE</tspan></text><text class="cls-5" transform="matrix(.58 0 0 .58 5066.55 918.55)">®</text><text class="cls-6" transform="matrix(.58 0 0 .58 5134.98 973.08)">18-3838 TCX</text><text class="cls-7" transform="matrix(.58 0 0 .58 5137.51 1002.86)">Ultra <tspan class="cls-16" x="115.08" y="0">V</tspan><tspan x="143.43" y="0" letter-spacing="0">iolet</tspan></text><text class="cls-8" transform="matrix(.58 0 0 .58 4854.78 974.58)">L*a*b*<tspan x="0" y="51.62">sRGB</tspan><tspan x="0" y="103.24">HEX</tspan></text><text class="cls-9" transform="matrix(.58 0 0 .58 4951.2 974.05)">36 20 -33<tspan x="0" y="51.62">95 75 139</tspan><tspan x="0" y="103.24">5F4B8B</tspan></text><text class="cls-21" transform="matrix(.58 0 0 .58 349.94 628.16)">2010</text><text class="cls-22" transform="matrix(.58 0 0 .58 886.02 628.16)">2011</text><text class="cls-22" transform="matrix(.58 0 0 .58 1422.1 628.16)">2012</text><text class="cls-22" transform="matrix(.58 0 0 .58 1958.18 628.16)">2013</text><text class="cls-22" transform="matrix(.58 0 0 .58 2494.26 628.16)">2014</text><text class="cls-22" transform="matrix(.58 0 0 .58 3030.34 628.16)">2015</text><text class="cls-21" transform="matrix(.58 0 0 .58 3566.42 628.16)">2016</text><text class="cls-21" transform="matrix(.58 0 0 .58 4103.13 628.16)">2016</text><text class="cls-21" transform="matrix(.58 0 0 .58 4638.58 628.16)">2017</text><text class="cls-22" transform="matrix(.58 0 0 .58 5174.11 628.16)">2018</text></g></g></svg>