<svg xmlns="http://www.w3.org/2000/svg" viewBox="0 0 1609.71 518.57"><defs><style>.cls-1,.cls-2{fill:#fff;stroke:#1d1d1b;stroke-miterlimit:10}.cls-2{fill:#008cc1}.cls-3{font-size:45px;font-family:HelveticaNeue-Bold,Helvetica Neue;font-weight:700}.cls-4{letter-spacing:-.07em}.cls-12,.cls-5{font-size:50px;font-family:HelveticaNeue,Helvetica Neue}.cls-12{fill:#1d1d1b}.cls-9{letter-spacing:.3em}.cls-10{letter-spacing:.65em}.cls-11{font-size:178.25px;font-family:HelveticaNeue-UltraLight,Helvetica Neue;font-weight:100}.cls-13{letter-spacing:.43em}.cls-14{letter-spacing:.55em}</style></defs><g id="Слой_2" data-name="Слой 2"><g id="Слой_1-2" data-name="Слой 1"><path class="cls-1" d="M1099.21 1.96h510v509.69h-510z"/><path class="cls-2" d="M1099.21 1.65h510v339.51h-510z"/><text class="cls-3" transform="translate(1105.18 385.92)"><tspan class="cls-4">P</tspan><tspan x="26.69" y="0">ANTONE</tspan></text><text class="cls-3" transform="matrix(.58 0 0 .58 1321.04 370.94)">®</text><text class="cls-5" transform="matrix(.58 0 0 .58 1108.28 442.23)">17-4435 TCX</text><text class="cls-5" transform="matrix(.58 0 0 .58 1112.28 478.72)">Malibu Blue</text><text transform="matrix(.58 0 0 .58 1341.61 434.48)" style="font-family:HelveticaNeue-Italic,Helvetica Neue;font-style:italic;fill:#1d1d1b;font-size:50px">L*a*b* <tspan x="150.1" y="0" style="letter-spacing:.45em">	</tspan><tspan x="186.56" y="0">53 -19 -38</tspan><tspan x="0" y="51.82">sRGB </tspan><tspan x="144.4" y="51.82" style="letter-spacing:.57em">	</tspan><tspan x="186.56" y="51.82">0 140 193</tspan><tspan x="0" y="103.64">HEX </tspan><tspan class="cls-9" x="111.1" y="103.64">	</tspan><tspan class="cls-10" x="139.92" y="103.64">	</tspan><tspan x="186.56" y="103.64">008CC1</tspan></text><text class="cls-11" transform="matrix(.58 0 0 .58 1308.37 480.45)">(</text><text class="cls-11" transform="matrix(.58 0 0 .58 1421.39 480.94)">)</text><path class="cls-1" d="M549.85 2.12h510v509.69h-510z"/><path class="cls-2" d="M549.85 1.8h510v339.51h-510z"/><text class="cls-3" transform="translate(555.82 386.07)"><tspan class="cls-4">P</tspan><tspan x="26.69" y="0">ANTONE</tspan></text><text class="cls-3" transform="matrix(.58 0 0 .58 771.69 371.09)">®</text><text class="cls-5" transform="matrix(.58 0 0 .58 558.93 442.39)">17-4435 TCX</text><text class="cls-5" transform="matrix(.58 0 0 .58 562.93 478.87)">Malibu Blue</text><text class="cls-12" transform="matrix(.58 0 0 .58 789.26 434.63)">L*a*b* <tspan class="cls-13" x="151" y="0">	</tspan><tspan x="186.56" y="0">53 -19 -38</tspan><tspan x="0" y="51.82">sRGB </tspan><tspan class="cls-14" x="145.35" y="51.82">	</tspan><tspan x="186.56" y="51.82">0 140 193</tspan><tspan x="0" y="103.64">HEX </tspan><tspan class="cls-9" x="111.1" y="103.64">	</tspan><tspan class="cls-10" x="139.92" y="103.64">	</tspan><tspan x="186.56" y="103.64">008CC1</tspan></text><text class="cls-11" transform="matrix(.58 0 0 .58 759.02 480.6)">(</text><text class="cls-11" transform="matrix(.58 0 0 .58 1036.32 480.79)">)</text><path class="cls-1" d="M.5.81h510V510.5H.5z"/><path class="cls-2" d="M.5.5h510v339.51H.5z"/><text class="cls-3" transform="translate(6.47 384.77)"><tspan class="cls-4">P</tspan><tspan x="26.69" y="0">ANTONE</tspan></text><text class="cls-3" transform="matrix(.58 0 0 .58 222.33 369.79)">®</text><text class="cls-5" transform="matrix(.58 0 0 .58 9.57 441.08)">17-4435 TCX</text><text class="cls-5" transform="matrix(.58 0 0 .58 13.57 477.57)">Malibu Blue</text><text class="cls-12" transform="matrix(.58 0 0 .58 237.14 425.58)">L*a*b* <tspan class="cls-13" x="151" y="0">	</tspan><tspan x="186.56" y="0">53 -19 -38</tspan><tspan x="0" y="51.82">sRGB </tspan><tspan class="cls-14" x="145.35" y="51.82">	</tspan><tspan x="186.56" y="51.82">0 140 193</tspan><tspan x="0" y="103.64">HEX </tspan><tspan class="cls-9" x="111.1" y="103.64">	</tspan><tspan class="cls-10" x="139.92" y="103.64">	</tspan><tspan x="186.56" y="103.64">008CC1</tspan></text><text class="cls-11" transform="matrix(.58 0 0 .58 215.94 482.09)">|</text><text class="cls-11" transform="matrix(.58 0 0 .58 480.86 481.58)">|</text></g></g></svg>