<svg xmlns="http://www.w3.org/2000/svg" viewBox="0 0 1088.69 511"><defs><style>.cls-1,.cls-2{fill:#fff;stroke:#1d1d1b;stroke-miterlimit:10}.cls-2{fill:#008cc1}.cls-3{font-size:45px;font-family:HelveticaNeue-Bold,Helvetica Neue;font-weight:700}.cls-4{letter-spacing:-.07em}.cls-5,.cls-6,.cls-7{font-size:50px}.cls-5{font-family:HelveticaNeue,Helvetica Neue}.cls-6{font-family:HelveticaNeue-Medium,Helvetica Neue;font-weight:500}.cls-7{font-family:HelveticaNeue-Light,Helvetica Neue;font-weight:300}.cls-8{fill:#878787;opacity:.45}</style></defs><g id="Слой_2" data-name="Слой 2"><g id="Слой_1-2" data-name="Слой 1"><path class="cls-1" d="M562.22.81h510V510.5h-510z"/><path class="cls-2" d="M562.22.5h510v339.51h-510z"/><text class="cls-3" transform="translate(587.63 392.36)"><tspan class="cls-4">P</tspan><tspan x="26.69" y="0">ANTONE</tspan></text><text class="cls-3" transform="matrix(.58 0 0 .58 803.49 377.38)">®</text><text class="cls-5" transform="matrix(.58 0 0 .58 882.2 432.12)">17-4435 TCX</text><text class="cls-5" transform="matrix(.58 0 0 .58 886.24 462.56)">Malibu Blue</text><text class="cls-6" transform="matrix(.58 0 0 .58 590.9 433.62)">L*a*b*<tspan x="0" y="51.82">sRGB</tspan><tspan x="0" y="103.64">HEX</tspan></text><text class="cls-7" transform="matrix(.58 0 0 .58 687.69 434.44)">53 -19 -38<tspan x="0" y="51.82">0 140 193</tspan><tspan x="0" y="103.64">008CC1</tspan></text><rect class="cls-8" x="891.78" y="458.24" width="196.92" height="38.88" rx="17.75"/><path class="cls-1" d="M.5.81h510V510.5H.5z"/><path class="cls-2" d="M.5.5h510v329.63H.5z"/><text class="cls-3" transform="translate(25.91 380.36)"><tspan class="cls-4">P</tspan><tspan x="26.69" y="0">ANTONE</tspan></text><text class="cls-3" transform="matrix(.58 0 0 .58 241.77 365.38)">®</text><text class="cls-5" transform="matrix(.58 0 0 .58 310.47 420.12)">17-4435 TCX</text><text class="cls-5" transform="matrix(.58 0 0 .58 313.01 449.35)">Dark Gull Gray</text><text class="cls-6" transform="matrix(.58 0 0 .58 29.17 421.62)">L*a*b*<tspan x="0" y="51.82">sRGB</tspan><tspan x="0" y="103.64">HEX</tspan></text><text class="cls-7" transform="matrix(.58 0 0 .58 125.96 422.44)">53 -19 -38<tspan x="0" y="51.82">0 140 193</tspan><tspan x="0" y="103.64">008CC1</tspan></text><rect class="cls-8" x="330.05" y="458.24" width="196.92" height="38.88" rx="17.75"/></g></g></svg>