<svg xmlns="http://www.w3.org/2000/svg" viewBox="0 0 2225.84 518.97"><defs><style>.cls-1,.cls-7{fill:#fff}.cls-1,.cls-2{stroke:#1d1d1b;stroke-miterlimit:10}.cls-2{fill:#008cc1}.cls-11,.cls-3,.cls-6,.cls-7{font-size:50px}.cls-11,.cls-16,.cls-3{font-family:HelveticaNeue-Bold,Helvetica Neue;font-weight:700}.cls-4{letter-spacing:-.07em}.cls-6,.cls-7{font-family:HelveticaNeue,Helvetica Neue}.cls-8{letter-spacing:.41em}.cls-9{letter-spacing:.52em}.cls-10{letter-spacing:-.03em}.cls-11{letter-spacing:0}.cls-16{font-size:45px}</style></defs><g id="Слой_2" data-name="Слой 2"><g id="Слой_1-2" data-name="Слой 1"><path class="cls-1" d="M.5.81h510V510.5H.5z"/><path class="cls-2" d="M.5.5h510v339.51H.5z"/><text class="cls-3" transform="translate(124.43 394.37)"><tspan class="cls-4">P</tspan><tspan x="29.65" y="0">ANTONE</tspan></text><text transform="matrix(.58 0 0 .58 364.28 377.72)" style="letter-spacing:0;font-family:HelveticaNeue-Bold,Helvetica Neue;font-weight:700;font-size:50px">®</text><text class="cls-6" transform="matrix(.58 0 0 .58 155.56 440.31)">17-4435 TCX</text><text class="cls-6" transform="matrix(.58 0 0 .58 164.76 482.19)">Malibu Blue</text><text class="cls-7" transform="matrix(.58 0 0 .58 117.43 232.62)">L*a*b* <tspan class="cls-8" x="151" y="0">	</tspan><tspan x="185.25" y="0">53 -19 -38</tspan><tspan x="5.55" y="68.61">sRGB </tspan><tspan class="cls-9" x="150.9" y="68.61">	</tspan><tspan x="190.8" y="68.61">0 140 193</tspan><tspan x="55.93" y="137.22">HEX </tspan><tspan class="cls-10" x="167.02" y="137.22">	</tspan><tspan x="179.42" y="137.22">008CC1</tspan></text><path class="cls-1" d="M581.51.97h510v509.69h-510z"/><path class="cls-2" d="M581.51.66h510v339.51h-510z"/><text class="cls-3" transform="translate(604.15 393.37)"><tspan class="cls-4">P</tspan><tspan x="29.65" y="0">ANTONE</tspan></text><text class="cls-11" transform="matrix(.58 0 0 .58 843.99 376.71)">®</text><text class="cls-6" transform="matrix(.58 0 0 .58 607.59 443.11)">17-4435 TCX</text><text class="cls-6" transform="matrix(.58 0 0 .58 607.59 484.99)">Malibu Blue</text><text transform="matrix(.58 0 0 .58 891.34 435.93)" style="font-size:37.76px;font-family:HelveticaNeue,Helvetica Neue">L*a*b* <tspan x="114.05" y="0" style="letter-spacing:.41em">	</tspan><tspan x="139.92" y="0">53 -19 -38</tspan><tspan x="8.38" y="51.82">sRGB </tspan><tspan x="118.17" y="51.82" style="letter-spacing:.52em">	</tspan><tspan x="148.3" y="51.82">0 140 193</tspan><tspan x="84.48" y="103.64">HEX </tspan><tspan x="168.39" y="103.64" style="letter-spacing:-.03em">	</tspan><tspan x="177.76" y="103.64">008CC1</tspan></text><path class="cls-1" d="M1151.21 4.01h510V513.7h-510z"/><path class="cls-2" d="M1151.21 3.7h510v339.51h-510z"/><text class="cls-3" transform="translate(1191.27 392.8)"><tspan class="cls-4">P</tspan><tspan x="29.65" y="0">ANTONE</tspan></text><text class="cls-11" transform="matrix(.58 0 0 .58 1431.12 376.15)">®</text><text class="cls-6" transform="matrix(.58 0 0 .58 1194.72 442.55)">17-4435 TCX</text><text class="cls-6" transform="matrix(.58 0 0 .58 1194.72 484.43)">Malibu Blue</text><text class="cls-7" transform="matrix(.58 0 0 .58 1194.72 244.78)">L*a*b* <tspan class="cls-8" x="151" y="0">	</tspan><tspan x="185.25" y="0">53 -19 -38</tspan><tspan x="0" y="68.61">sRGB </tspan><tspan class="cls-9" x="145.35" y="68.61">	</tspan><tspan x="185.25" y="68.61">0 140 193</tspan><tspan x="0" y="137.22">HEX </tspan><tspan class="cls-10" x="111.1" y="137.22">	</tspan><tspan x="123.5" y="137.22">008CC1</tspan></text><path class="cls-1" d="M1715.34 8.78h510v509.69h-510z"/><path class="cls-2" d="M1715.34 8.47h510V338.1h-510z"/><text class="cls-16" transform="translate(1740.75 388.33)"><tspan style="letter-spacing:-.07em">P</tspan><tspan x="26.69" y="0">ANTONE</tspan></text><text class="cls-16" transform="matrix(.58 0 0 .58 1956.61 373.34)">®</text><path class="cls-2" d="M1988.36 338.1h236.98v179.57h-236.98z"/><text class="cls-7" transform="matrix(.58 0 0 .58 2025.32 428.09)">17-4435 TCX</text><text class="cls-7" transform="matrix(.58 0 0 .58 2027.85 457.32)">Dark Gull Gray</text><text transform="matrix(.58 0 0 .58 1744.02 429.59)" style="font-family:HelveticaNeue-Medium,Helvetica Neue;font-weight:500;font-size:50px">L*a*b*<tspan x="0" y="51.82">sRGB</tspan><tspan x="0" y="103.64">HEX</tspan></text><text transform="matrix(.58 0 0 .58 1840.81 430.41)" style="font-family:HelveticaNeue-Light,Helvetica Neue;font-weight:300;font-size:50px">53 -19 -38<tspan x="0" y="51.82">0 140 193</tspan><tspan x="0" y="103.64">008CC1</tspan></text><path style="fill:#008cc1" d="M1988.92 198.32h235.42v179.57h-235.42z"/></g></g></svg>