<svg xmlns="http://www.w3.org/2000/svg" viewBox="0 0 1103.34 1031.64"><defs><style>.cls-1,.cls-15,.cls-7{fill:#fff}.cls-1,.cls-12{stroke:#1d1d1b;stroke-miterlimit:10}.cls-15,.cls-3,.cls-5,.cls-6{font-size:50px}.cls-3,.cls-5{font-family:HelveticaNeue-Bold,Helvetica Neue;font-weight:700}.cls-4{letter-spacing:-.07em}.cls-5{letter-spacing:0}.cls-15,.cls-16,.cls-6,.cls-7{font-family:HelveticaNeue,Helvetica Neue}.cls-16,.cls-7{font-size:40px}.cls-8{letter-spacing:-.21em}.cls-9{letter-spacing:-.1em}.cls-10{letter-spacing:.59em}.cls-12{fill:#edf1ff}</style></defs><g id="Слой_2" data-name="Слой 2"><g id="Слой_1-2" data-name="Слой 1"><path class="cls-1" d="M.5.81h334.25v501.78H.5z"/><path fill="#008cc1" stroke="#1d1d1b" stroke-miterlimit="10" d="M.5.5h334.25v334.25H.5z"/><text class="cls-3" transform="translate(6 383.08)"><tspan class="cls-4">P</tspan><tspan x="29.65" y="0">ANTONE</tspan></text><text class="cls-5" transform="matrix(.58 0 0 .58 245.85 366.43)">®</text><text class="cls-6" transform="matrix(.58 0 0 .58 9.45 432.82)">17-4435 TCX</text><text class="cls-6" transform="matrix(.58 0 0 .58 9.45 474.7)">Malibu Blue</text><text class="cls-7" transform="matrix(.58 0 0 .58 11.72 253.45)">L*a*b* <tspan class="cls-8" x="120.8" y="0"> </tspan><tspan x="123.5" y="0">53 -19 -38</tspan><tspan x="0" y="54.89">sRGB </tspan><tspan class="cls-9" x="116.28" y="54.89"> </tspan><tspan x="123.5" y="54.89">0 140 193</tspan><tspan x="0" y="109.78">HEX </tspan><tspan class="cls-10" x="88.88" y="109.78"> </tspan><tspan x="123.5" y="109.78">008CC1</tspan></text><path stroke="#1d1d1b" stroke-miterlimit="10" d="M384.55.96H718.8v501.78H384.55z"/><path class="cls-12" d="M384.55.65H718.8V334.9H384.55z"/><text transform="translate(390.05 383.23)" font-family="HelveticaNeue-Bold,Helvetica Neue" font-weight="700" font-size="50" fill="#fff"><tspan class="cls-4">P</tspan><tspan x="29.65" y="0">ANTONE</tspan></text><text transform="matrix(.58 0 0 .58 629.9 366.58)" letter-spacing="0" font-family="HelveticaNeue-Bold,Helvetica Neue" font-weight="700" font-size="50" fill="#fff">®</text><text class="cls-15" transform="matrix(.58 0 0 .58 393.5 432.98)">11-4001 TCX</text><text class="cls-15" transform="matrix(.58 0 0 .58 393.5 474.86)">Brilliant White</text><text class="cls-16" transform="matrix(.58 0 0 .58 395.77 253.61)">L*a*b* <tspan class="cls-8" x="120.8" y="0"> </tspan><tspan x="123.5" y="0">96 3 -17</tspan><tspan x="0" y="54.89">sRGB </tspan><tspan class="cls-9" x="116.28" y="54.89"> </tspan><tspan x="123.5" y="54.89">237 241 255</tspan><tspan x="0" y="109.78">HEX </tspan><tspan class="cls-10" x="88.88" y="109.78"> </tspan><tspan x="123.5" y="109.78">EDF1FF</tspan></text><path class="cls-1" d="M386.42 525.61h334.25v501.78H386.42z"/><path fill="#ebd1bb" stroke="#1d1d1b" stroke-miterlimit="10" d="M386.42 525.3h334.25v334.25H386.42z"/><text class="cls-3" transform="translate(391.92 907.88)"><tspan class="cls-4">P</tspan><tspan x="29.65" y="0">ANTONE</tspan></text><text class="cls-5" transform="matrix(.58 0 0 .58 631.77 891.23)">®</text><text class="cls-6" transform="matrix(.58 0 0 .58 395.37 957.62)">12-0807 TCX</text><text class="cls-6" transform="matrix(.58 0 0 .58 395.37 999.5)">Sun Kiss</text><text class="cls-16" transform="matrix(.58 0 0 .58 397.64 778.25)">L*a*b* 86 7 15<tspan x="0" y="54.89">sRGB </tspan><tspan class="cls-9" x="116.28" y="54.89"> </tspan><tspan x="123.5" y="54.89">235 209 187</tspan><tspan x="0" y="109.78">HEX </tspan><tspan class="cls-10" x="88.88" y="109.78"> </tspan><tspan x="123.5" y="109.78">EBD1BB</tspan></text><path class="cls-1" d="M768.6.96h334.25v501.78H768.6z"/><path class="cls-12" d="M768.6.65h334.25V334.9H768.6z"/><text class="cls-3" transform="translate(774.1 383.23)"><tspan class="cls-4">P</tspan><tspan x="29.65" y="0">ANTONE</tspan></text><text class="cls-5" transform="matrix(.58 0 0 .58 1013.95 366.58)">®</text><text class="cls-6" transform="matrix(.58 0 0 .58 777.55 432.98)">17-4435 TCX</text><text class="cls-6" transform="matrix(.58 0 0 .58 777.55 474.86)">Malibu Blue</text><text class="cls-16" transform="matrix(.58 0 0 .58 779.82 253.61)">L*a*b* <tspan class="cls-8" x="120.8" y="0"> </tspan><tspan x="123.5" y="0">53 -19 -38</tspan><tspan x="0" y="54.89">sRGB </tspan><tspan class="cls-9" x="116.28" y="54.89"> </tspan><tspan x="123.5" y="54.89">0 140 193</tspan><tspan x="0" y="109.78">HEX </tspan><tspan class="cls-10" x="88.88" y="109.78"> </tspan><tspan x="123.5" y="109.78">008CC1</tspan></text><path class="cls-1" d="M768.6 525.46h334.25v501.78H768.6z"/><path fill="#a89a91" stroke="#1d1d1b" stroke-miterlimit="10" d="M768.6 525.15h334.25V859.4H768.6z"/><text class="cls-3" transform="translate(774.1 907.72)"><tspan class="cls-4">P</tspan><tspan x="29.65" y="0">ANTONE</tspan></text><text class="cls-5" transform="matrix(.58 0 0 .58 1013.95 891.07)">®</text><text class="cls-6" transform="matrix(.58 0 0 .58 777.55 957.47)">16-0806 TCX</text><text class="cls-6" transform="matrix(.58 0 0 .58 777.55 999.35)">Goat</text><text class="cls-7" transform="matrix(.58 0 0 .58 779.82 778.1)">L*a*b* <tspan class="cls-8" x="120.8" y="0"> </tspan><tspan x="123.5" y="0">65 6 6</tspan><tspan x="0" y="54.89">sRGB </tspan><tspan class="cls-9" x="116.28" y="54.89"> </tspan><tspan x="123.5" y="54.89">168 154 145</tspan><tspan x="0" y="109.78">HEX </tspan><tspan class="cls-10" x="88.88" y="109.78"> </tspan><tspan x="123.5" y="109.78">A89A91</tspan></text><path class="cls-1" d="M.5 527.77h334.25v501.78H.5z"/><path class="cls-12" d="M.5 527.46h334.25v334.25H.5z"/><text class="cls-3" transform="translate(6 910.04)"><tspan class="cls-4">P</tspan><tspan x="29.65" y="0">ANTONE®</tspan></text><text class="cls-6" transform="matrix(.58 0 0 .58 9.45 959.78)">11-4001 TCX</text><text class="cls-6" transform="matrix(.58 0 0 .58 9.45 1001.67)">Brilliant White</text><text class="cls-16" transform="matrix(.58 0 0 .58 11.72 780.41)">L*a*b* <tspan class="cls-8" x="120.8" y="0"> </tspan><tspan x="123.5" y="0">96 3 -17</tspan><tspan x="0" y="54.89">sRGB </tspan><tspan class="cls-9" x="116.28" y="54.89"> </tspan><tspan x="123.5" y="54.89">237 241 255</tspan><tspan x="0" y="109.78">HEX </tspan><tspan class="cls-10" x="88.88" y="109.78"> </tspan><tspan x="123.5" y="109.78">EDF1FF</tspan></text></g></g></svg>