<svg xmlns="http://www.w3.org/2000/svg" viewBox="0 0 1609.71 518.57"><defs><style>.cls-1{fill:#fff;}.cls-1,.cls-2{stroke:#1d1d1b;stroke-miterlimit:10;}.cls-2{fill:#008cc1;}.cls-3{font-size:45px;font-family:HelveticaNeue-Bold, Helvetica Neue;font-weight:700;}.cls-4{letter-spacing:-0.07em;}.cls-12,.cls-5,.cls-6{font-size:50px;}.cls-12,.cls-5{font-family:HelveticaNeue, Helvetica Neue;}.cls-12,.cls-6{fill:#1d1d1b;}.cls-6{font-family:HelveticaNeue-Italic, Helvetica Neue;font-style:italic;}.cls-7{letter-spacing:0.45em;}.cls-8{letter-spacing:0.57em;}.cls-9{letter-spacing:0.3em;}.cls-10{letter-spacing:0.65em;}.cls-11{font-size:178.25px;font-family:HelveticaNeue-UltraLight, Helvetica Neue;font-weight:100;}.cls-13{letter-spacing:0.43em;}.cls-14{letter-spacing:0.55em;}</style></defs><g id="Слой_2" data-name="Слой 2"><g id="Слой_1-2" data-name="Слой 1"><rect class="cls-1" x="1099.21" y="1.96" width="510" height="509.69"/><rect class="cls-2" x="1099.21" y="1.65" width="510" height="339.51"/><text class="cls-3" transform="translate(1105.18 385.92)"><tspan class="cls-4">P</tspan><tspan x="26.69" y="0">ANTONE</tspan></text><text class="cls-3" transform="translate(1321.04 370.94) scale(0.58)">®</text><text class="cls-5" transform="translate(1108.28 442.23) scale(0.58)">17-4435 TCX</text><text class="cls-5" transform="translate(1112.28 478.72) scale(0.58)">Malibu Blue</text><text class="cls-6" transform="translate(1341.61 434.48) scale(0.58)">L*a*b* <tspan class="cls-7" x="150.1" y="0">	</tspan><tspan x="186.56" y="0">53 -19 -38</tspan><tspan x="0" y="51.82">sRGB </tspan><tspan class="cls-8" x="144.4" y="51.82">	</tspan><tspan x="186.56" y="51.82">0 140 193</tspan><tspan x="0" y="103.64">HEX </tspan><tspan class="cls-9" x="111.1" y="103.64">	</tspan><tspan class="cls-10" x="139.92" y="103.64">	</tspan><tspan x="186.56" y="103.64">008CC1</tspan></text><text class="cls-11" transform="translate(1308.37 480.45) scale(0.58)">(</text><text class="cls-11" transform="translate(1421.39 480.94) scale(0.58)">)</text><rect class="cls-1" x="549.85" y="2.12" width="510" height="509.69"/><rect class="cls-2" x="549.85" y="1.8" width="510" height="339.51"/><text class="cls-3" transform="translate(555.82 386.07)"><tspan class="cls-4">P</tspan><tspan x="26.69" y="0">ANTONE</tspan></text><text class="cls-3" transform="translate(771.69 371.09) scale(0.58)">®</text><text class="cls-5" transform="translate(558.93 442.39) scale(0.58)">17-4435 TCX</text><text class="cls-5" transform="translate(562.93 478.87) scale(0.58)">Malibu Blue</text><text class="cls-12" transform="translate(789.26 434.63) scale(0.58)">L*a*b* <tspan class="cls-13" x="151" y="0">	</tspan><tspan x="186.56" y="0">53 -19 -38</tspan><tspan x="0" y="51.82">sRGB </tspan><tspan class="cls-14" x="145.35" y="51.82">	</tspan><tspan x="186.56" y="51.82">0 140 193</tspan><tspan x="0" y="103.64">HEX </tspan><tspan class="cls-9" x="111.1" y="103.64">	</tspan><tspan class="cls-10" x="139.92" y="103.64">	</tspan><tspan x="186.56" y="103.64">008CC1</tspan></text><text class="cls-11" transform="translate(759.02 480.6) scale(0.58)">(</text><text class="cls-11" transform="translate(1036.32 480.79) scale(0.58)">)</text><rect class="cls-1" x="0.5" y="0.81" width="510" height="509.69"/><rect class="cls-2" x="0.5" y="0.5" width="510" height="339.51"/><text class="cls-3" transform="translate(6.47 384.77)"><tspan class="cls-4">P</tspan><tspan x="26.69" y="0">ANTONE</tspan></text><text class="cls-3" transform="translate(222.33 369.79) scale(0.58)">®</text><text class="cls-5" transform="translate(9.57 441.08) scale(0.58)">17-4435 TCX</text><text class="cls-5" transform="translate(13.57 477.57) scale(0.58)">Malibu Blue</text><text class="cls-12" transform="translate(237.14 425.58) scale(0.58)">L*a*b* <tspan class="cls-13" x="151" y="0">	</tspan><tspan x="186.56" y="0">53 -19 -38</tspan><tspan x="0" y="51.82">sRGB </tspan><tspan class="cls-14" x="145.35" y="51.82">	</tspan><tspan x="186.56" y="51.82">0 140 193</tspan><tspan x="0" y="103.64">HEX </tspan><tspan class="cls-9" x="111.1" y="103.64">	</tspan><tspan class="cls-10" x="139.92" y="103.64">	</tspan><tspan x="186.56" y="103.64">008CC1</tspan></text><text class="cls-11" transform="translate(215.94 482.09) scale(0.58)">|</text><text class="cls-11" transform="translate(480.86 481.58) scale(0.58)">|</text></g></g></svg>