<svg xmlns="http://www.w3.org/2000/svg" viewBox="0 0 1103.34 1031.64"><defs><style>.cls-1,.cls-13,.cls-14,.cls-15,.cls-7{fill:#fff;}.cls-1,.cls-11,.cls-12,.cls-17,.cls-18,.cls-2{stroke:#1d1d1b;stroke-miterlimit:10;}.cls-2{fill:#008cc1;}.cls-13,.cls-14,.cls-15,.cls-3,.cls-5,.cls-6{font-size:50px;}.cls-13,.cls-14,.cls-3,.cls-5{font-family:HelveticaNeue-Bold, Helvetica Neue;font-weight:700;}.cls-4{letter-spacing:-0.07em;}.cls-14,.cls-5{letter-spacing:0em;}.cls-15,.cls-16,.cls-6,.cls-7{font-family:HelveticaNeue, Helvetica Neue;}.cls-16,.cls-7{font-size:40px;}.cls-8{letter-spacing:-0.21em;}.cls-9{letter-spacing:-0.1em;}.cls-10{letter-spacing:0.59em;}.cls-12{fill:#edf1ff;}.cls-17{fill:#ebd1bb;}.cls-18{fill:#a89a91;}</style></defs><g id="Слой_2" data-name="Слой 2"><g id="Слой_1-2" data-name="Слой 1"><rect class="cls-1" x="0.5" y="0.81" width="334.25" height="501.78"/><rect class="cls-2" x="0.5" y="0.5" width="334.25" height="334.25"/><text class="cls-3" transform="translate(6 383.08)"><tspan class="cls-4">P</tspan><tspan x="29.65" y="0">ANTONE</tspan></text><text class="cls-5" transform="translate(245.85 366.43) scale(0.58)">®</text><text class="cls-6" transform="translate(9.45 432.82) scale(0.58)">17-4435 TCX</text><text class="cls-6" transform="translate(9.45 474.7) scale(0.58)">Malibu Blue</text><text class="cls-7" transform="translate(11.72 253.45) scale(0.58)">L*a*b* <tspan class="cls-8" x="120.8" y="0">	</tspan><tspan x="123.5" y="0">53 -19 -38</tspan><tspan x="0" y="54.89">sRGB </tspan><tspan class="cls-9" x="116.28" y="54.89">	</tspan><tspan x="123.5" y="54.89">0 140 193</tspan><tspan x="0" y="109.78">HEX </tspan><tspan class="cls-10" x="88.88" y="109.78">	</tspan><tspan x="123.5" y="109.78">008CC1</tspan></text><rect class="cls-11" x="384.55" y="0.96" width="334.25" height="501.78"/><rect class="cls-12" x="384.55" y="0.65" width="334.25" height="334.25"/><text class="cls-13" transform="translate(390.05 383.23)"><tspan class="cls-4">P</tspan><tspan x="29.65" y="0">ANTONE</tspan></text><text class="cls-14" transform="translate(629.9 366.58) scale(0.58)">®</text><text class="cls-15" transform="translate(393.5 432.98) scale(0.58)">11-4001 TCX</text><text class="cls-15" transform="translate(393.5 474.86) scale(0.58)">Brilliant White</text><text class="cls-16" transform="translate(395.77 253.61) scale(0.58)">L*a*b* <tspan class="cls-8" x="120.8" y="0">	</tspan><tspan x="123.5" y="0">96 3 -17</tspan><tspan x="0" y="54.89">sRGB </tspan><tspan class="cls-9" x="116.28" y="54.89">	</tspan><tspan x="123.5" y="54.89">237 241 255</tspan><tspan x="0" y="109.78">HEX </tspan><tspan class="cls-10" x="88.88" y="109.78">	</tspan><tspan x="123.5" y="109.78">EDF1FF</tspan></text><rect class="cls-1" x="386.42" y="525.61" width="334.25" height="501.78"/><rect class="cls-17" x="386.42" y="525.3" width="334.25" height="334.25"/><text class="cls-3" transform="translate(391.92 907.88)"><tspan class="cls-4">P</tspan><tspan x="29.65" y="0">ANTONE</tspan></text><text class="cls-5" transform="translate(631.77 891.23) scale(0.58)">®</text><text class="cls-6" transform="translate(395.37 957.62) scale(0.58)">12-0807 TCX</text><text class="cls-6" transform="translate(395.37 999.5) scale(0.58)">Sun Kiss</text><text class="cls-16" transform="translate(397.64 778.25) scale(0.58)">L*a*b* 86 7 15<tspan x="0" y="54.89">sRGB </tspan><tspan class="cls-9" x="116.28" y="54.89">	</tspan><tspan x="123.5" y="54.89">235 209 187</tspan><tspan x="0" y="109.78">HEX </tspan><tspan class="cls-10" x="88.88" y="109.78">	</tspan><tspan x="123.5" y="109.78">EBD1BB</tspan></text><rect class="cls-1" x="768.6" y="0.96" width="334.25" height="501.78"/><rect class="cls-12" x="768.6" y="0.65" width="334.25" height="334.25"/><text class="cls-3" transform="translate(774.1 383.23)"><tspan class="cls-4">P</tspan><tspan x="29.65" y="0">ANTONE</tspan></text><text class="cls-5" transform="translate(1013.95 366.58) scale(0.58)">®</text><text class="cls-6" transform="translate(777.55 432.98) scale(0.58)">17-4435 TCX</text><text class="cls-6" transform="translate(777.55 474.86) scale(0.58)">Malibu Blue</text><text class="cls-16" transform="translate(779.82 253.61) scale(0.58)">L*a*b* <tspan class="cls-8" x="120.8" y="0">	</tspan><tspan x="123.5" y="0">53 -19 -38</tspan><tspan x="0" y="54.89">sRGB </tspan><tspan class="cls-9" x="116.28" y="54.89">	</tspan><tspan x="123.5" y="54.89">0 140 193</tspan><tspan x="0" y="109.78">HEX </tspan><tspan class="cls-10" x="88.88" y="109.78">	</tspan><tspan x="123.5" y="109.78">008CC1</tspan></text><rect class="cls-1" x="768.6" y="525.46" width="334.25" height="501.78"/><rect class="cls-18" x="768.6" y="525.15" width="334.25" height="334.25"/><text class="cls-3" transform="translate(774.1 907.72)"><tspan class="cls-4">P</tspan><tspan x="29.65" y="0">ANTONE</tspan></text><text class="cls-5" transform="translate(1013.95 891.07) scale(0.58)">®</text><text class="cls-6" transform="translate(777.55 957.47) scale(0.58)">16-0806 TCX</text><text class="cls-6" transform="translate(777.55 999.35) scale(0.58)">Goat</text><text class="cls-7" transform="translate(779.82 778.1) scale(0.58)">L*a*b* <tspan class="cls-8" x="120.8" y="0">	</tspan><tspan x="123.5" y="0">65 6 6</tspan><tspan x="0" y="54.89">sRGB </tspan><tspan class="cls-9" x="116.28" y="54.89">	</tspan><tspan x="123.5" y="54.89">168 154 145</tspan><tspan x="0" y="109.78">HEX </tspan><tspan class="cls-10" x="88.88" y="109.78">	</tspan><tspan x="123.5" y="109.78">A89A91</tspan></text><rect class="cls-1" x="0.5" y="527.77" width="334.25" height="501.78"/><rect class="cls-12" x="0.5" y="527.46" width="334.25" height="334.25"/><text class="cls-3" transform="translate(6 910.04)"><tspan class="cls-4">P</tspan><tspan x="29.65" y="0">ANTONE®</tspan></text><text class="cls-6" transform="translate(9.45 959.78) scale(0.58)">11-4001 TCX</text><text class="cls-6" transform="translate(9.45 1001.67) scale(0.58)">Brilliant White</text><text class="cls-16" transform="translate(11.72 780.41) scale(0.58)">L*a*b* <tspan class="cls-8" x="120.8" y="0">	</tspan><tspan x="123.5" y="0">96 3 -17</tspan><tspan x="0" y="54.89">sRGB </tspan><tspan class="cls-9" x="116.28" y="54.89">	</tspan><tspan x="123.5" y="54.89">237 241 255</tspan><tspan x="0" y="109.78">HEX </tspan><tspan class="cls-10" x="88.88" y="109.78">	</tspan><tspan x="123.5" y="109.78">EDF1FF</tspan></text></g></g></svg>