<svg xmlns="http://www.w3.org/2000/svg" viewBox="0 0 1088.69 511"><defs><style>.cls-1{fill:#fff;}.cls-1,.cls-2{stroke:#1d1d1b;stroke-miterlimit:10;}.cls-2{fill:#008cc1;}.cls-3{font-size:45px;font-family:HelveticaNeue-Bold, Helvetica Neue;font-weight:700;}.cls-4{letter-spacing:-0.07em;}.cls-5,.cls-6,.cls-7{font-size:50px;}.cls-5{font-family:HelveticaNeue, Helvetica Neue;}.cls-6{font-family:HelveticaNeue-Medium, Helvetica Neue;font-weight:500;}.cls-7{font-family:HelveticaNeue-Light, Helvetica Neue;font-weight:300;}.cls-8{fill:#878787;opacity:0.45;}</style></defs><g id="Слой_2" data-name="Слой 2"><g id="Слой_1-2" data-name="Слой 1"><rect class="cls-1" x="562.22" y="0.81" width="510" height="509.69"/><rect class="cls-2" x="562.22" y="0.5" width="510" height="339.51"/><text class="cls-3" transform="translate(587.63 392.36)"><tspan class="cls-4">P</tspan><tspan x="26.69" y="0">ANTONE</tspan></text><text class="cls-3" transform="translate(803.49 377.38) scale(0.58)">®</text><text class="cls-5" transform="translate(882.2 432.12) scale(0.58)">17-4435 TCX</text><text class="cls-5" transform="translate(886.24 462.56) scale(0.58)">Malibu Blue</text><text class="cls-6" transform="translate(590.9 433.62) scale(0.58)">L*a*b*<tspan x="0" y="51.82">sRGB</tspan><tspan x="0" y="103.64">HEX</tspan></text><text class="cls-7" transform="translate(687.69 434.44) scale(0.58)">53 -19 -38<tspan x="0" y="51.82">0 140 193</tspan><tspan x="0" y="103.64">008CC1</tspan></text><rect class="cls-8" x="891.78" y="458.24" width="196.92" height="38.88" rx="17.75"/><rect class="cls-1" x="0.5" y="0.81" width="510" height="509.69"/><rect class="cls-2" x="0.5" y="0.5" width="510" height="329.63"/><text class="cls-3" transform="translate(25.91 380.36)"><tspan class="cls-4">P</tspan><tspan x="26.69" y="0">ANTONE</tspan></text><text class="cls-3" transform="translate(241.77 365.38) scale(0.58)">®</text><text class="cls-5" transform="translate(310.47 420.12) scale(0.58)">17-4435 TCX</text><text class="cls-5" transform="translate(313.01 449.35) scale(0.58)">Dark Gull Gray</text><text class="cls-6" transform="translate(29.17 421.62) scale(0.58)">L*a*b*<tspan x="0" y="51.82">sRGB</tspan><tspan x="0" y="103.64">HEX</tspan></text><text class="cls-7" transform="translate(125.96 422.44) scale(0.58)">53 -19 -38<tspan x="0" y="51.82">0 140 193</tspan><tspan x="0" y="103.64">008CC1</tspan></text><rect class="cls-8" x="330.05" y="458.24" width="196.92" height="38.88" rx="17.75"/></g></g></svg>