<svg xmlns="http://www.w3.org/2000/svg" viewBox="0 0 2225.84 518.97"><defs><style>.cls-1,.cls-7{fill:#fff;}.cls-1,.cls-2{stroke:#1d1d1b;stroke-miterlimit:10;}.cls-2,.cls-20{fill:#008cc1;}.cls-11,.cls-18,.cls-19,.cls-3,.cls-5,.cls-6,.cls-7{font-size:50px;}.cls-11,.cls-16,.cls-3,.cls-5{font-family:HelveticaNeue-Bold, Helvetica Neue;font-weight:700;}.cls-4{letter-spacing:-0.07em;}.cls-5{letter-spacing:0em;}.cls-12,.cls-6,.cls-7{font-family:HelveticaNeue, Helvetica Neue;}.cls-8{letter-spacing:0.41em;}.cls-9{letter-spacing:0.52em;}.cls-10{letter-spacing:-0.03em;}.cls-11{letter-spacing:0em;}.cls-12{font-size:37.76px;}.cls-13{letter-spacing:0.41em;}.cls-14{letter-spacing:0.52em;}.cls-15{letter-spacing:-0.03em;}.cls-16{font-size:45px;}.cls-17{letter-spacing:-0.07em;}.cls-18{font-family:HelveticaNeue-Medium, Helvetica Neue;font-weight:500;}.cls-19{font-family:HelveticaNeue-Light, Helvetica Neue;font-weight:300;}</style></defs><g id="Слой_2" data-name="Слой 2"><g id="Слой_1-2" data-name="Слой 1"><rect class="cls-1" x="0.5" y="0.81" width="510" height="509.69"/><rect class="cls-2" x="0.5" y="0.5" width="510" height="339.51"/><text class="cls-3" transform="translate(124.43 394.37)"><tspan class="cls-4">P</tspan><tspan x="29.65" y="0">ANTONE</tspan></text><text class="cls-5" transform="translate(364.28 377.72) scale(0.58)">®</text><text class="cls-6" transform="translate(155.56 440.31) scale(0.58)">17-4435 TCX</text><text class="cls-6" transform="translate(164.76 482.19) scale(0.58)">Malibu Blue</text><text class="cls-7" transform="translate(117.43 232.62) scale(0.58)">L*a*b* <tspan class="cls-8" x="151" y="0">	</tspan><tspan x="185.25" y="0">53 -19 -38</tspan><tspan x="5.55" y="68.61">sRGB </tspan><tspan class="cls-9" x="150.9" y="68.61">	</tspan><tspan x="190.8" y="68.61">0 140 193</tspan><tspan x="55.93" y="137.22">HEX </tspan><tspan class="cls-10" x="167.02" y="137.22">	</tspan><tspan x="179.42" y="137.22">008CC1</tspan></text><rect class="cls-1" x="581.51" y="0.97" width="510" height="509.69"/><rect class="cls-2" x="581.51" y="0.66" width="510" height="339.51"/><text class="cls-3" transform="translate(604.15 393.37)"><tspan class="cls-4">P</tspan><tspan x="29.65" y="0">ANTONE</tspan></text><text class="cls-11" transform="translate(843.99 376.71) scale(0.58)">®</text><text class="cls-6" transform="translate(607.59 443.11) scale(0.58)">17-4435 TCX</text><text class="cls-6" transform="translate(607.59 484.99) scale(0.58)">Malibu Blue</text><text class="cls-12" transform="translate(891.34 435.93) scale(0.58)">L*a*b* <tspan class="cls-13" x="114.05" y="0">	</tspan><tspan x="139.92" y="0">53 -19 -38</tspan><tspan x="8.38" y="51.82">sRGB </tspan><tspan class="cls-14" x="118.17" y="51.82">	</tspan><tspan x="148.3" y="51.82">0 140 193</tspan><tspan x="84.48" y="103.64">HEX </tspan><tspan class="cls-15" x="168.39" y="103.64">	</tspan><tspan x="177.76" y="103.64">008CC1</tspan></text><rect class="cls-1" x="1151.21" y="4.01" width="510" height="509.69"/><rect class="cls-2" x="1151.21" y="3.7" width="510" height="339.51"/><text class="cls-3" transform="translate(1191.27 392.8)"><tspan class="cls-4">P</tspan><tspan x="29.65" y="0">ANTONE</tspan></text><text class="cls-11" transform="translate(1431.12 376.15) scale(0.58)">®</text><text class="cls-6" transform="translate(1194.72 442.55) scale(0.58)">17-4435 TCX</text><text class="cls-6" transform="translate(1194.72 484.43) scale(0.58)">Malibu Blue</text><text class="cls-7" transform="translate(1194.72 244.78) scale(0.58)">L*a*b* <tspan class="cls-8" x="151" y="0">	</tspan><tspan x="185.25" y="0">53 -19 -38</tspan><tspan x="0" y="68.61">sRGB </tspan><tspan class="cls-9" x="145.35" y="68.61">	</tspan><tspan x="185.25" y="68.61">0 140 193</tspan><tspan x="0" y="137.22">HEX </tspan><tspan class="cls-10" x="111.1" y="137.22">	</tspan><tspan x="123.5" y="137.22">008CC1</tspan></text><rect class="cls-1" x="1715.34" y="8.78" width="510" height="509.69"/><rect class="cls-2" x="1715.34" y="8.47" width="510" height="329.63"/><text class="cls-16" transform="translate(1740.75 388.33)"><tspan class="cls-17">P</tspan><tspan x="26.69" y="0">ANTONE</tspan></text><text class="cls-16" transform="translate(1956.61 373.34) scale(0.58)">®</text><rect class="cls-2" x="1988.36" y="338.1" width="236.98" height="179.57"/><text class="cls-7" transform="translate(2025.32 428.09) scale(0.58)">17-4435 TCX</text><text class="cls-7" transform="translate(2027.85 457.32) scale(0.58)">Dark Gull Gray</text><text class="cls-18" transform="translate(1744.02 429.59) scale(0.58)">L*a*b*<tspan x="0" y="51.82">sRGB</tspan><tspan x="0" y="103.64">HEX</tspan></text><text class="cls-19" transform="translate(1840.81 430.41) scale(0.58)">53 -19 -38<tspan x="0" y="51.82">0 140 193</tspan><tspan x="0" y="103.64">008CC1</tspan></text><rect class="cls-20" x="1988.92" y="198.32" width="235.42" height="179.57"/></g></g></svg>